<?xml version="1.0" standalone="no"?>
<!DOCTYPE svg PUBLIC "-//W3C//DTD SVG 20010904//EN"
 "http://www.w3.org/TR/2001/REC-SVG-20010904/DTD/svg10.dtd">
<svg version="1.0" xmlns="http://www.w3.org/2000/svg"
 width="1080.000000pt" height="1080.000000pt" viewBox="0 0 1080.000000 1080.000000"
 preserveAspectRatio="xMidYMid meet">
<metadata>
Created by potrace 1.16, written by Peter Selinger 2001-2019
</metadata>
<g transform="translate(0.000000,1080.000000) scale(0.100000,-0.100000)"
fill="#000000" stroke="none">
<path d="M452 8672 c1 -18 8 -38 15 -44 7 -6 13 -19 13 -29 0 -11 5 -19 10
-19 6 0 10 -5 10 -11 0 -6 10 -25 23 -42 25 -36 82 -139 98 -179 6 -16 15 -28
20 -28 5 0 9 -9 9 -19 0 -11 5 -23 10 -26 6 -4 8 -10 6 -14 -3 -4 2 -17 12
-28 23 -26 52 -81 52 -99 0 -8 5 -14 10 -14 6 0 18 -17 28 -37 9 -21 20 -40
24 -43 3 -3 14 -25 24 -50 10 -25 24 -51 31 -58 7 -7 13 -18 13 -23 0 -5 11
-27 25 -49 14 -22 25 -46 25 -54 0 -8 3 -16 8 -18 4 -1 16 -21 27 -43 11 -22
34 -60 50 -85 33 -48 49 -80 47 -92 -1 -5 3 -8 8 -8 6 0 10 -7 10 -15 0 -8 5
-15 10 -15 6 0 10 -7 10 -16 0 -18 31 -77 43 -82 4 -2 7 -8 7 -14 0 -15 32
-81 47 -96 7 -7 13 -22 13 -32 0 -10 7 -20 15 -24 8 -3 15 -12 15 -21 0 -8 5
-15 10 -15 6 0 10 -8 10 -19 0 -10 7 -24 15 -31 8 -7 31 -47 51 -89 20 -42 44
-87 54 -101 9 -14 15 -31 13 -37 -3 -7 0 -13 5 -13 5 0 18 -19 28 -42 10 -24
26 -51 34 -61 21 -25 180 -322 180 -337 0 -13 53 -90 62 -90 4 0 8 -6 8 -14 0
-8 18 -45 40 -82 22 -38 40 -74 40 -81 0 -7 4 -13 9 -13 5 0 12 -13 16 -30 4
-16 10 -30 13 -30 8 0 42 -74 42 -90 0 -6 5 -10 10 -10 6 0 10 -6 10 -13 0 -8
9 -24 20 -37 11 -12 36 -57 57 -99 20 -42 41 -77 45 -79 4 -2 8 -11 8 -21 0
-9 9 -27 20 -39 12 -12 18 -22 15 -22 -4 0 3 -13 14 -29 12 -16 21 -34 21 -41
0 -12 27 -65 45 -87 25 -31 31 -40 50 -78 11 -22 23 -41 28 -43 4 -2 7 -10 7
-17 0 -16 32 -79 43 -83 4 -2 7 -10 7 -17 0 -16 29 -73 48 -93 6 -7 13 -18 13
-23 1 -5 2 -13 3 -17 0 -5 9 -16 19 -26 9 -10 17 -23 17 -31 0 -7 7 -15 15
-19 8 -3 15 -15 15 -26 0 -11 4 -20 10 -20 5 0 12 -16 16 -35 3 -19 9 -33 13
-30 4 2 16 -16 26 -41 10 -24 22 -44 27 -44 4 0 8 -5 8 -12 0 -18 33 -88 42
-88 4 0 8 -9 8 -20 0 -11 4 -20 9 -20 5 0 13 -10 17 -22 4 -13 15 -34 25 -47
10 -13 35 -56 54 -97 19 -40 40 -76 45 -79 6 -3 10 -13 10 -20 0 -8 16 -39 35
-69 19 -30 35 -60 35 -65 0 -11 78 -143 90 -151 3 -3 15 -26 26 -52 10 -27 22
-48 27 -48 4 0 7 -8 7 -19 0 -10 7 -24 15 -31 8 -7 15 -21 15 -31 0 -10 4 -20
10 -24 5 -3 25 -39 45 -79 20 -41 45 -84 55 -97 11 -12 20 -29 20 -37 0 -8 8
-22 19 -31 10 -9 22 -31 25 -49 4 -17 12 -32 17 -32 5 0 9 -6 9 -14 0 -8 3
-16 8 -18 9 -4 42 -66 42 -79 0 -5 11 -27 25 -48 13 -22 27 -51 31 -65 3 -14
10 -26 16 -26 5 0 16 -15 24 -32 21 -46 40 -78 53 -91 6 -6 11 -17 11 -25 0
-8 9 -27 20 -42 11 -16 23 -42 26 -60 4 -17 9 -28 12 -26 2 3 23 -32 46 -77
22 -45 49 -91 58 -101 10 -11 22 -34 29 -53 6 -18 15 -33 20 -33 5 0 9 -6 9
-13 0 -18 30 -78 47 -95 7 -7 13 -20 13 -28 0 -8 5 -14 10 -14 6 0 10 -9 10
-19 0 -11 5 -23 10 -26 6 -4 19 -23 30 -44 10 -21 35 -54 54 -73 20 -20 36
-40 36 -44 0 -4 11 -19 24 -33 14 -15 26 -32 28 -40 2 -8 10 -22 18 -31 8 -9
25 -29 37 -46 12 -16 29 -38 37 -49 53 -70 86 -116 86 -120 0 -6 81 -85 86
-85 4 0 42 -38 207 -208 42 -44 91 -90 108 -103 17 -13 41 -34 54 -46 13 -12
39 -30 59 -41 19 -11 33 -22 29 -26 -3 -3 -2 -6 4 -6 6 0 25 -13 43 -30 18
-16 38 -30 46 -30 8 0 14 -4 14 -10 0 -5 5 -10 11 -10 6 0 17 -6 24 -12 32
-29 45 -38 52 -38 4 0 24 -14 43 -30 19 -16 40 -34 47 -40 7 -5 17 -10 23 -10
5 0 10 -3 10 -8 0 -4 17 -16 38 -27 20 -11 43 -26 50 -32 7 -7 18 -13 24 -13
6 0 18 -8 27 -18 9 -9 35 -26 58 -37 24 -11 43 -23 43 -27 0 -5 8 -8 18 -8 9
0 30 -7 46 -15 15 -8 37 -15 48 -15 11 0 26 -7 34 -15 9 -8 24 -15 35 -15 10
0 19 -4 19 -10 0 -5 8 -10 19 -10 10 0 24 -7 31 -15 7 -8 19 -15 26 -15 8 0
14 -4 14 -10 0 -5 22 -12 49 -16 28 -3 59 -15 70 -25 11 -11 27 -19 35 -19 8
0 17 -4 20 -9 4 -5 29 -12 56 -16 28 -4 50 -11 50 -16 0 -5 8 -9 18 -9 9 0 30
-7 46 -15 15 -8 44 -15 62 -15 19 0 34 -4 34 -9 0 -5 18 -11 40 -15 22 -3 40
-11 40 -16 0 -6 20 -10 45 -10 25 0 45 -4 45 -9 0 -4 27 -11 60 -15 33 -4 62
-11 65 -16 4 -6 24 -10 46 -10 21 0 39 -4 39 -9 0 -5 45 -13 99 -16 87 -7 100
-10 104 -27 5 -19 16 -19 504 -14 469 5 498 6 498 23 0 16 11 18 85 21 46 1
89 7 94 12 6 6 21 10 36 10 14 1 36 7 50 15 14 8 46 14 73 15 26 0 47 5 47 10
0 6 11 10 24 10 14 0 27 4 30 9 3 4 28 11 56 15 27 4 50 11 50 16 0 6 9 10 19
10 11 0 22 4 25 9 4 5 30 12 59 16 28 4 54 10 57 14 12 16 81 41 114 41 20 0
36 5 36 10 0 6 6 10 14 10 7 0 19 7 26 15 7 8 25 15 41 15 15 0 45 11 65 25
20 14 43 25 50 25 8 0 14 4 14 9 0 5 14 13 32 16 17 4 40 15 50 25 11 10 39
21 64 25 24 3 44 10 44 14 0 9 66 41 85 41 8 0 15 4 15 8 0 5 16 17 35 28 19
10 35 22 35 26 0 5 6 8 14 8 8 0 16 7 20 15 3 8 15 15 26 15 11 0 20 5 20 10
0 6 7 10 15 10 9 0 18 7 21 15 4 8 12 15 19 15 7 0 15 7 19 15 3 8 12 15 21
15 8 0 15 5 15 10 0 6 6 10 13 10 7 0 20 8 28 18 24 26 72 62 84 62 6 0 17 9
25 20 8 11 19 20 24 20 5 0 22 14 38 30 15 17 35 30 43 30 8 0 15 5 15 10 0 6
7 10 15 10 8 0 15 4 15 9 0 5 9 13 21 16 11 4 18 9 15 12 -6 7 32 43 45 43 9
0 27 19 159 161 47 50 117 123 156 162 68 70 134 149 134 161 0 3 8 14 18 24
28 31 48 57 68 90 10 18 22 32 26 32 4 0 8 6 8 14 0 8 3 16 8 18 4 2 22 26 39
53 18 28 43 62 56 76 14 14 28 35 31 47 4 12 12 22 17 22 5 0 9 7 9 15 0 8 5
15 10 15 6 0 10 7 10 15 0 9 11 32 23 53 30 47 97 185 97 199 0 5 9 20 20 33
11 13 20 28 20 35 0 6 9 21 20 33 11 12 19 25 18 29 -2 7 21 64 43 105 5 10 9
28 9 41 0 13 7 32 15 43 8 10 15 29 15 41 0 12 5 25 10 28 6 3 10 22 10 41 0
22 5 34 14 34 8 0 16 15 19 38 9 63 24 121 34 134 6 7 13 29 16 48 10 74 29
155 38 165 5 5 9 20 9 35 1 14 7 36 15 50 8 15 14 53 15 93 0 38 4 67 10 67 6
0 10 28 10 65 0 59 2 65 20 65 20 0 20 5 20 461 -1 444 -5 510 -31 494 -5 -4
-9 18 -9 54 0 34 -5 61 -11 63 -6 2 -15 35 -20 73 -14 120 -21 155 -30 155 -5
0 -9 11 -9 24 0 14 -4 27 -9 30 -10 7 -26 83 -22 105 4 22 -21 32 -36 13 -12
-16 -13 -16 -7 1 5 14 2 16 -12 10 -18 -7 -18 -6 -1 11 9 9 17 23 17 29 -1 7
-6 5 -13 -4 -7 -9 -15 -17 -19 -17 -5 -1 -9 -2 -10 -3 -23 -7 -38 -5 -38 4 0
8 -3 8 -8 2 -9 -12 -65 -17 -57 -5 3 4 2 10 -2 13 -5 2 -2 2 5 0 18 -4 11 29
-7 35 -8 3 -11 1 -8 -4 3 -5 -5 -9 -18 -9 -14 0 -21 5 -18 12 3 7 8 11 12 9 4
-3 13 0 21 5 13 9 13 10 0 8 -8 -1 -22 -1 -30 0 -13 1 -13 2 0 12 11 8 12 10
1 7 -8 -2 -15 -19 -17 -37 -4 -30 -2 -33 17 -28 16 4 19 3 11 -5 -17 -17 -45
-1 -39 22 3 11 1 23 -4 26 -5 3 -9 2 -8 -3 1 -4 1 -17 0 -28 -1 -16 -3 -17
-11 -5 -6 9 -5 17 3 22 7 4 8 8 3 8 -5 0 -1 10 10 22 13 16 14 19 2 10 -13
-10 -17 -10 -21 0 -3 8 -6 6 -6 -5 -1 -11 -6 -15 -13 -11 -6 4 -8 3 -4 -4 3
-6 1 -14 -5 -17 -5 -4 -8 -14 -5 -24 5 -12 3 -12 -9 3 -8 10 -11 24 -7 30 14
23 8 62 -10 63 -10 1 -18 -2 -18 -8 0 -5 4 -9 9 -9 5 0 11 -9 14 -21 5 -20 5
-20 -14 -3 -10 9 -19 13 -19 8 0 -5 -7 0 -15 10 -8 11 -15 15 -15 10 0 -6 5
-15 12 -22 9 -9 9 -15 0 -24 -9 -9 -12 -9 -12 1 0 9 -4 10 -12 3 -7 -5 -22 -6
-32 -3 -17 7 -17 8 -3 14 8 3 18 1 21 -6 2 -7 5 -4 5 6 1 14 -4 16 -24 11 -30
-7 -35 16 -8 37 15 12 16 12 10 -3 -4 -13 -1 -18 9 -18 10 0 14 6 10 15 -3 8
-1 14 3 12 5 -1 11 2 12 7 2 5 -6 10 -18 11 -12 1 -25 -4 -27 -12 -4 -9 -14
-11 -31 -7 -19 5 -25 2 -25 -10 0 -9 7 -16 15 -16 26 0 16 -15 -12 -17 -15 0
-21 2 -14 7 10 5 8 11 -4 24 -9 9 -13 16 -9 16 3 0 1 7 -6 15 -11 13 -10 15 6
9 15 -5 16 -4 4 4 -19 14 -33 4 -27 -19 3 -11 1 -17 -4 -13 -15 9 -10 -14 7
-30 8 -9 10 -16 4 -16 -6 0 -13 7 -16 15 -4 8 -12 15 -20 15 -8 0 -14 5 -14
10 0 6 6 10 13 10 9 0 8 3 -2 9 -7 5 -22 6 -34 3 -12 -3 -18 -1 -14 5 4 6 -5
21 -19 34 -20 19 -27 21 -34 10 -6 -11 -9 -10 -12 5 -3 18 -4 18 -26 -3 -17
-15 -20 -23 -11 -29 7 -4 9 -3 6 3 -4 6 0 13 8 17 8 3 17 1 20 -4 3 -5 14 -7
25 -5 10 2 23 -2 29 -9 8 -10 3 -12 -23 -12 -19 1 -32 4 -29 9 2 4 0 7 -6 7
-5 0 -12 -4 -15 -8 -6 -10 -36 -9 -54 1 -8 6 -10 3 -6 -10 6 -15 4 -15 -9 2
-9 11 -16 25 -17 30 0 6 5 3 10 -5 7 -12 9 -11 8 6 -2 15 -7 20 -20 16 -10 -2
-18 1 -18 7 0 7 -4 10 -10 6 -5 -3 -6 -13 -3 -23 6 -15 5 -15 -12 1 -15 16
-16 20 -4 28 12 8 6 13 -13 11 -3 -1 -12 5 -18 13 -14 16 -45 21 -35 6 3 -6
-4 -15 -15 -21 -16 -8 -20 -8 -20 4 0 8 6 16 12 19 10 3 10 8 -1 18 -8 8 -11
9 -7 2 3 -6 2 -14 -4 -18 -9 -6 -14 7 -11 28 2 14 -17 7 -23 -9 -3 -8 -2 -12
4 -9 6 3 10 1 10 -4 0 -14 -23 -14 -37 0 -12 12 -33 4 -33 -13 0 -7 5 -6 14 2
13 10 13 8 3 -14 -8 -17 -13 -21 -15 -11 -2 8 -8 12 -14 9 -6 -4 -3 7 8 24 14
25 16 34 6 44 -9 9 -12 9 -12 -1 0 -7 -4 -9 -10 -6 -5 3 -10 -1 -10 -10 0 -10
5 -14 13 -9 9 5 9 4 0 -6 -7 -7 -20 -14 -30 -15 -10 0 -24 -4 -31 -9 -6 -4
-12 -2 -12 3 0 6 -5 10 -12 9 -6 -2 -14 6 -16 16 -4 18 -3 19 13 3 9 -10 22
-14 28 -10 8 5 8 8 0 10 -6 2 -9 13 -6 23 6 22 21 27 20 8 -1 -32 4 -48 14
-48 8 0 9 11 5 31 -3 19 -1 38 6 46 10 12 8 12 -14 3 -19 -9 -31 -9 -46 -1
-28 15 -42 13 -17 -2 21 -13 31 -37 16 -37 -5 0 -11 7 -15 15 -3 8 -13 15 -23
14 -16 0 -16 -1 2 -8 19 -8 19 -8 -2 -19 -19 -11 -22 -9 -25 11 -3 19 -9 22
-53 23 -27 1 -56 -3 -63 -9 -9 -7 -16 -7 -24 1 -16 16 -31 15 -22 0 4 -7 4
-10 -1 -6 -4 4 -14 3 -22 -4 -12 -10 -12 -7 -2 15 7 16 17 24 28 20 13 -4 13
-2 -1 7 -22 13 -23 30 -4 30 8 0 17 3 19 8 3 4 -5 7 -18 7 -13 0 -21 -3 -18
-7 2 -5 -1 -8 -7 -8 -7 0 -10 -6 -7 -14 3 -8 0 -16 -6 -19 -8 -3 -12 7 -12 27
0 28 -3 31 -32 31 -17 0 -29 3 -26 7 2 5 0 8 -6 8 -14 0 -19 -23 -9 -42 6 -14
5 -16 -7 -12 -8 3 -13 10 -10 14 3 4 -2 10 -10 13 -8 4 -16 -2 -20 -13 -8 -24
2 -43 17 -34 7 4 8 2 4 -5 -6 -9 -11 -9 -21 -1 -16 13 -28 53 -13 43 7 -4 8
-1 4 6 -5 7 -14 10 -22 7 -12 -5 -12 -2 -3 15 8 16 8 24 -2 33 -9 8 -10 8 -5
-1 4 -7 2 -13 -4 -13 -6 0 -9 -4 -6 -9 3 -5 -1 -14 -9 -21 -13 -11 -14 -10
-10 2 7 17 -20 32 -38 21 -7 -4 -5 2 3 12 13 17 13 18 -1 13 -9 -4 -22 -1 -28
5 -8 8 -11 8 -11 -1 0 -7 -7 -12 -16 -12 -14 0 -14 3 -4 15 10 12 10 15 -3 15
-16 0 -30 -16 -33 -38 -2 -8 3 -11 12 -8 9 3 12 1 9 -4 -8 -12 -16 -12 -35 0
-12 7 -12 12 4 29 12 13 14 21 7 21 -7 0 -9 5 -5 11 4 8 9 7 16 -2 8 -11 9
-11 5 1 -2 8 -10 14 -16 12 -6 -1 -11 3 -11 9 0 5 -5 7 -10 4 -6 -3 -8 -17 -6
-31 3 -13 0 -24 -5 -24 -6 0 -7 -4 -4 -10 3 -5 0 -10 -8 -10 -22 0 -28 12 -14
28 9 13 9 14 -1 8 -7 -4 -12 -2 -12 5 0 6 8 9 19 6 13 -3 18 0 15 8 -3 7 2 19
10 28 14 13 14 16 -1 22 -10 3 -14 3 -11 -1 11 -10 -11 -44 -28 -44 -8 0 -12
4 -9 10 3 6 -1 7 -10 3 -13 -5 -14 -7 -3 -14 9 -6 9 -9 1 -9 -6 0 -15 4 -18
10 -4 6 -15 2 -27 -10 -20 -19 -21 -19 -40 3 -17 19 -19 19 -14 3 6 -16 4 -17
-9 -6 -9 7 -14 19 -11 27 3 7 3 13 -1 13 -10 0 -314 -300 -304 -300 3 0 -1 -4
-9 -10 -10 -6 -25 2 -56 33 -23 23 -57 53 -74 67 -17 14 -42 35 -55 48 -13 12
-26 22 -29 22 -8 0 -98 62 -120 82 -11 10 -23 18 -27 18 -4 0 -14 6 -21 13 -7
6 -32 21 -55 32 -24 11 -43 23 -43 28 0 4 -8 7 -18 7 -10 0 -27 7 -38 15 -10
8 -27 15 -37 15 -10 0 -15 5 -12 10 3 6 -4 10 -17 10 -13 0 -36 7 -52 15 -15
8 -35 15 -42 15 -8 0 -14 4 -14 9 0 5 -20 12 -45 15 -24 4 -47 11 -50 17 -4 5
-17 9 -31 9 -13 0 -24 4 -24 9 0 5 -27 12 -60 16 -33 4 -60 10 -60 14 0 13
-233 35 -385 35 -153 1 -356 -18 -387 -34 -10 -6 -42 -13 -72 -16 -31 -4 -53
-10 -51 -14 3 -4 -8 -10 -23 -13 -74 -15 -132 -33 -126 -40 4 -4 -5 -7 -19 -7
-15 0 -27 -4 -27 -9 0 -5 -18 -12 -40 -16 -22 -4 -40 -10 -40 -14 0 -7 -74
-41 -90 -41 -6 0 -10 -4 -10 -10 0 -5 -8 -10 -19 -10 -10 0 -24 -7 -31 -15 -7
-8 -19 -15 -27 -15 -8 0 -21 -6 -28 -12 -30 -27 -44 -38 -50 -38 -3 0 -18 -11
-33 -25 -15 -14 -30 -25 -35 -25 -4 0 -13 -5 -20 -10 -7 -6 -28 -24 -47 -40
-19 -16 -39 -30 -43 -30 -11 0 -267 -260 -267 -271 0 -4 -13 -22 -30 -39 -16
-17 -30 -33 -30 -36 0 -5 -48 -73 -60 -84 -12 -12 -58 -88 -75 -125 -11 -22
-22 -42 -25 -45 -4 -3 -15 -29 -25 -57 -11 -29 -23 -53 -27 -53 -4 0 -8 -7 -8
-16 0 -9 -7 -32 -16 -52 -37 -84 -64 -163 -64 -185 0 -10 -4 -16 -9 -13 -5 3
-12 -26 -15 -64 -4 -38 -11 -72 -17 -75 -15 -10 -10 -52 7 -59 9 -3 158 -6
333 -6 336 0 341 1 341 47 0 13 5 23 10 23 6 0 10 11 10 25 0 14 5 25 10 25 6
0 10 10 10 23 0 12 7 35 15 51 8 15 15 35 15 42 0 8 5 14 10 14 6 0 10 7 10
17 0 9 10 30 23 47 12 17 31 48 42 70 11 21 26 40 33 43 6 3 12 9 12 15 0 5 6
15 12 23 7 7 22 25 33 41 39 53 146 155 202 191 15 10 37 26 47 35 11 10 29
21 40 24 12 4 23 10 26 13 11 14 60 41 75 41 9 0 13 5 10 10 -3 6 3 10 14 10
12 0 21 4 21 10 0 5 18 13 40 16 22 4 40 10 40 15 0 5 11 9 24 9 14 0 27 4 31
9 3 6 27 13 53 16 26 4 56 10 67 15 42 18 224 33 321 27 143 -10 214 -18 214
-27 0 -4 27 -10 60 -14 33 -4 62 -11 65 -16 4 -6 17 -10 31 -10 13 0 24 -4 24
-10 0 -5 8 -10 18 -10 9 0 30 -7 46 -15 15 -8 35 -15 43 -15 8 0 12 -4 9 -9
-3 -5 7 -11 22 -14 15 -3 36 -14 48 -25 11 -11 30 -23 42 -26 12 -4 22 -12 22
-17 0 -5 5 -9 11 -9 6 0 16 -6 24 -12 7 -7 25 -22 41 -33 15 -11 47 -37 70
-58 l43 -39 -35 -31 c-18 -18 -62 -60 -96 -95 -35 -35 -92 -91 -127 -125 -35
-34 -87 -86 -117 -115 -59 -58 -50 -58 -115 1 -17 15 -37 27 -44 27 -7 0 -15
3 -17 8 -4 10 -67 42 -84 42 -8 0 -14 4 -14 8 0 17 -119 35 -235 35 -116 0
-235 -18 -235 -35 0 -4 -7 -8 -16 -8 -18 0 -77 -31 -82 -42 -2 -5 -9 -8 -16
-8 -20 0 -86 -59 -166 -149 -29 -32 -81 -123 -87 -152 -3 -16 -9 -29 -14 -29
-5 0 -9 -13 -9 -30 0 -16 -4 -30 -10 -30 -6 0 -10 -60 -10 -160 0 -100 4 -160
10 -160 6 0 10 -13 10 -30 0 -16 4 -30 9 -30 5 0 12 -18 16 -40 4 -22 11 -40
15 -40 5 0 11 -9 15 -20 16 -51 167 -210 214 -225 12 -3 21 -11 21 -16 0 -5 7
-9 15 -9 8 0 15 -4 15 -9 0 -5 16 -12 35 -15 19 -4 35 -11 35 -16 0 -6 14 -10
31 -10 16 0 28 -4 25 -9 -6 -10 89 -21 179 -21 90 0 185 11 179 21 -3 5 9 9
25 9 17 0 31 4 31 10 0 5 16 12 35 16 19 3 35 10 35 15 0 5 7 9 15 9 8 0 15 4
15 9 0 5 9 13 21 16 19 6 50 29 86 63 11 12 17 10 32 -10 26 -32 94 -100 120
-117 11 -8 18 -18 15 -23 -3 -4 -1 -8 4 -8 6 0 67 -57 138 -126 l128 -127 -36
-31 c-68 -59 -87 -75 -115 -93 -15 -10 -34 -23 -41 -30 -7 -7 -20 -13 -28 -13
-8 0 -14 -4 -14 -10 0 -5 -7 -10 -15 -10 -8 0 -15 -4 -15 -9 0 -5 -13 -12 -30
-16 -16 -4 -30 -11 -30 -16 0 -5 -9 -9 -20 -9 -11 0 -20 -4 -20 -9 0 -6 -20
-13 -45 -17 -25 -3 -45 -10 -45 -15 0 -5 -8 -9 -18 -9 -10 0 -23 -5 -28 -10
-6 -6 -40 -13 -77 -17 -37 -3 -67 -9 -67 -13 0 -11 -124 -23 -235 -23 -117 0
-247 12 -240 23 2 4 -26 10 -62 13 -37 4 -71 11 -77 17 -5 5 -20 10 -33 10
-13 0 -23 4 -23 9 0 5 -15 11 -32 15 -40 8 -88 28 -88 38 0 3 -13 9 -30 13
-16 4 -30 11 -30 16 0 5 -7 9 -15 9 -8 0 -15 4 -15 9 0 5 -8 12 -17 15 -46 16
-116 70 -215 162 -74 70 -188 215 -188 240 0 8 -4 14 -10 14 -5 0 -10 9 -10
19 0 11 -4 21 -8 23 -14 5 -72 133 -72 157 0 12 -4 21 -10 21 -5 0 -10 11 -10
24 0 14 -4 28 -10 31 -5 3 -10 15 -10 26 0 19 -13 19 -634 19 l-634 0 -12 68
c-14 79 -8 516 9 602 6 30 13 73 16 95 4 22 10 49 15 60 5 11 12 46 15 77 4
32 11 60 16 63 5 4 9 22 9 41 0 19 5 34 10 34 6 0 10 9 10 21 0 12 6 35 14 52
8 18 22 57 32 87 10 30 22 59 26 64 4 6 8 16 8 22 0 13 51 131 72 169 6 11 23
43 37 70 14 28 31 56 37 62 7 7 18 26 26 43 7 16 17 30 21 30 5 0 5 5 2 10 -3
6 -1 10 4 10 6 0 11 7 11 15 0 8 5 15 10 15 6 0 10 5 10 10 0 11 60 98 123
179 117 149 399 421 437 421 6 0 8 5 5 10 -3 6 -1 10 5 10 6 0 18 6 25 13 33
29 45 37 55 37 5 0 10 4 10 9 0 5 10 13 22 17 12 3 31 15 42 26 11 10 31 21
43 24 13 4 23 10 23 14 0 4 11 11 25 14 14 4 25 11 25 16 0 6 7 10 15 10 8 0
15 4 15 9 0 8 37 24 53 22 4 -1 7 4 7 9 0 6 7 10 15 10 8 0 15 4 15 10 0 5 16
12 35 16 19 3 35 10 35 15 0 5 9 9 20 9 11 0 20 4 20 9 0 6 20 13 45 16 25 4
43 12 42 19 -1 6 6 10 16 8 9 -2 24 4 33 13 18 18 4 21 -15 3 -11 -11 -13 -10
-7 5 3 10 6 20 6 23 0 2 8 1 18 -3 9 -3 15 -4 12 -2 -3 2 -16 13 -29 24 -22
19 -23 19 -20 1 2 -10 -1 -21 -6 -22 -6 -2 -10 10 -10 28 0 28 -4 33 -32 39
-37 7 -43 4 -42 -25 0 -12 3 -15 6 -8 2 6 9 12 14 12 6 0 7 -6 3 -12 -4 -7 1
-5 12 4 18 16 19 15 19 -7 0 -17 -5 -22 -18 -19 -38 7 -57 16 -52 24 3 4 -1
10 -9 13 -8 3 -17 -1 -20 -9 -10 -26 -7 -36 9 -30 8 3 15 1 15 -4 0 -15 -15
-19 -30 -7 -17 13 -24 50 -7 40 6 -4 7 -1 3 6 -5 7 -14 10 -22 7 -12 -5 -12
-2 -3 15 8 16 8 24 -2 33 -9 8 -10 8 -5 -1 4 -7 2 -13 -4 -13 -6 0 -9 -4 -5
-9 3 -5 1 -12 -5 -16 -6 -4 -7 -11 -4 -17 4 -7 2 -8 -5 -4 -6 4 -9 11 -6 16 3
5 0 12 -6 16 -8 4 -7 9 2 15 10 6 10 9 2 9 -6 0 -15 -4 -18 -10 -3 -5 -11 -10
-17 -10 -6 0 -5 7 3 17 12 15 12 16 -2 11 -9 -4 -22 -1 -28 5 -8 8 -11 8 -11
-1 0 -7 -7 -12 -16 -12 -13 0 -14 3 -5 14 9 11 7 15 -8 19 -11 3 -20 2 -19 -2
0 -3 -1 -8 -2 -11 -9 -25 -7 -41 6 -36 9 3 12 1 9 -4 -8 -12 -16 -12 -35 0
-12 7 -12 12 4 29 19 21 19 21 -3 21 -12 0 -19 -4 -16 -10 3 -5 1 -10 -5 -10
-6 0 -8 -4 -5 -10 3 -5 0 -10 -8 -10 -22 0 -28 12 -14 28 9 13 9 14 0 8 -7 -4
-13 -2 -13 3 0 6 7 11 15 11 8 0 15 5 15 11 0 8 5 7 15 -1 13 -10 18 -11 28
-1 9 10 8 11 -7 5 -15 -6 -17 -4 -11 6 5 9 4 11 -3 6 -7 -4 -12 -2 -12 3 0 6
-9 2 -20 -9 -22 -22 -45 -26 -55 -10 -4 6 -15 1 -27 -10 -16 -15 -24 -17 -29
-8 -10 16 -1 30 13 22 6 -4 8 -2 4 4 -3 5 -2 12 3 14 5 1 2 10 -7 18 -14 13
-15 12 -9 -2 6 -18 -15 -42 -28 -30 -5 4 -6 0 -3 -9 4 -9 2 -22 -4 -30 -8 -11
-9 -10 -4 4 3 9 0 17 -5 17 -7 0 -9 9 -6 21 6 22 10 22 -78 7 -16 -2 -20 3
-20 22 0 14 -5 25 -11 25 -6 0 -18 8 -28 18 -19 18 -46 23 -46 7 0 -5 7 -6 17
-3 11 4 14 3 9 -6 -5 -7 -14 -10 -22 -7 -8 3 -14 0 -14 -5 0 -6 9 -9 20 -6 13
3 18 1 13 -6 -4 -7 1 -6 10 2 9 7 17 12 18 10 0 -2 2 -15 5 -29 3 -22 2 -23
-7 -7 -8 14 -14 16 -25 6 -10 -8 -18 -9 -27 0 -8 6 -17 8 -21 4 -4 -4 -4 1 0
12 6 14 4 17 -9 12 -11 -4 -14 -2 -11 8 3 8 12 11 20 8 8 -3 14 0 14 7 0 6 -4
8 -10 5 -6 -3 -10 2 -10 11 0 16 -1 16 -16 -2 -13 -15 -15 -16 -10 -2 3 11 1
15 -8 12 -8 -3 -12 -15 -10 -27 2 -12 2 -16 -2 -9 -3 6 -10 10 -15 7 -5 -4 -6
1 -3 10 5 11 2 14 -11 9 -15 -6 -16 -4 -6 13 10 19 7 22 -27 28 -20 4 -45 14
-55 23 -16 15 -17 15 -12 -1 4 -9 19 -20 33 -26 25 -9 25 -9 5 -10 -15 -1 -23
-8 -24 -18 0 -11 -3 -13 -6 -5 -7 19 -26 14 -19 -5 4 -12 -1 -9 -12 6 -11 13
-24 21 -31 17 -6 -4 -11 -2 -11 3 0 6 4 11 9 11 5 0 8 11 5 25 -3 16 0 25 8
26 7 1 2 4 -12 8 -20 6 -27 3 -34 -13 -5 -12 -8 -28 -7 -36 2 -12 0 -13 -10
-2 -7 6 -21 12 -32 12 -10 0 -15 5 -12 10 3 6 1 10 -4 10 -6 0 -11 -6 -11 -12
0 -8 -7 -5 -15 6 -15 20 -20 12 -15 -23 1 -12 -1 -12 -13 -3 -7 6 -16 11 -18
9 -2 -1 1 3 8 9 15 13 18 64 4 64 -6 0 -13 -5 -17 -12 -5 -7 -3 -8 5 -3 10 6
11 3 2 -14 -16 -28 -34 -27 -26 2 11 33 11 35 0 39 -5 1 -11 -10 -12 -26 -2
-35 -13 -49 -12 -15 1 31 -5 53 -14 57 -9 3 -10 0 -1 -21 13 -35 -4 -27 -21
10 l-18 38 -15 -33 c-9 -17 -20 -32 -24 -32 -5 0 -7 4 -3 9 3 5 1 12 -4 15
-12 8 -41 -4 -41 -16 0 -6 7 -7 16 -4 9 3 12 2 9 -5 -4 -5 -14 -9 -23 -7 -10
1 -24 -1 -32 -6 -8 -5 -5 2 6 15 12 13 19 31 17 39 -4 13 -3 13 6 0 8 -12 10
-11 8 7 -1 16 -4 19 -14 12 -9 -8 -19 -4 -36 15 -23 24 -37 25 -37 2 0 -6 5
-4 10 4 7 12 10 8 10 -15 0 -24 -2 -27 -11 -15 -9 12 -10 11 -6 -7 7 -34 -1
-28 -17 12 -15 35 -41 46 -61 26 -6 -5 -21 -12 -33 -16 -23 -7 -24 -7 -5 12
10 11 22 18 27 15 5 -3 6 1 1 8 -6 10 -11 10 -20 -4 -13 -17 -45 -13 -45 6 0
7 5 6 14 -1 11 -9 15 -8 20 4 3 10 1 15 -7 13 -6 -1 -22 3 -35 10 -12 7 -27
10 -32 7 -17 -11 -1 -23 23 -19 12 2 16 2 9 -2 -6 -3 -9 -11 -6 -16 4 -7 2 -8
-4 -4 -8 5 -12 -1 -12 -16 0 -18 -2 -20 -10 -8 -9 14 -14 7 -11 -13 1 -5 -3
-5 -9 -2 -8 5 -6 13 4 24 23 25 20 31 -13 31 -17 0 -33 5 -36 10 -3 6 -1 10 6
10 7 0 10 3 6 6 -3 3 -12 2 -19 -2 -20 -14 -78 -11 -67 2 6 8 4 14 -7 18 -26
10 -34 7 -28 -11 4 -14 2 -13 -7 2 -20 31 -39 48 -47 40 -4 -3 2 -13 12 -21
19 -14 19 -14 -2 -14 -15 0 -22 6 -22 20 0 14 -5 18 -17 14 -15 -5 -15 -4 -3
4 8 6 17 9 21 6 4 -2 11 1 15 7 5 8 -1 10 -18 7 -17 -3 -25 0 -25 9 0 9 6 12
16 8 13 -5 13 -4 4 6 -10 10 -16 9 -29 -2 -9 -8 -19 -13 -21 -11 -1 1 -2 -1
-1 -5 2 -5 6 -7 10 -6 5 2 8 -1 8 -5 0 -13 -64 -34 -68 -22 -2 5 -16 11 -30
11 -24 2 -24 2 -4 6 12 2 22 9 22 15 0 5 -7 8 -15 4 -8 -3 -15 -1 -15 5 0 6
-7 8 -16 5 -10 -4 -13 -2 -7 7 4 6 9 21 10 31 3 15 -1 14 -18 -7 -24 -31 -37
-34 -55 -9 -16 21 -18 4 -3 -35 8 -23 8 -26 -3 -15 -7 7 -14 17 -14 22 -1 6
-2 16 -3 23 -1 6 -6 2 -12 -11 -5 -13 -14 -20 -20 -16 -6 3 -7 9 -3 13 5 3 10
12 11 19 4 15 -19 16 -34 1 -16 -16 -47 19 -32 37 14 17 -2 19 -20 2 -10 -11
-11 -9 -5 6 5 13 4 17 -4 12 -7 -4 -12 -2 -12 4 0 7 -5 6 -15 -2 -12 -11 -10
-16 13 -35 15 -13 22 -23 15 -23 -6 0 -19 7 -27 16 -9 8 -20 12 -26 9 -6 -3
-13 1 -16 9 -5 12 -11 13 -24 6 -26 -14 -29 -13 -22 12 4 17 2 20 -11 15 -8
-3 -25 3 -38 14 -12 10 -18 19 -13 19 5 0 1 7 -10 15 -11 8 -15 19 -10 27 6
10 3 9 -10 -1 -9 -8 -13 -17 -9 -20 13 -10 15 -51 3 -51 -7 0 -9 7 -6 16 4 11
2 15 -8 11 -11 -4 -13 -1 -9 11 3 9 3 14 -2 10 -4 -4 -17 -2 -28 3 -16 9 -17
13 -6 20 10 6 10 9 2 9 -7 0 -17 -9 -23 -20 -8 -14 -8 -20 0 -20 6 0 8 -5 5
-11 -5 -6 -12 -4 -20 8 -7 10 -17 15 -21 11 -4 -4 -1 -14 6 -23 11 -13 10 -14
-4 -9 -9 3 -16 14 -16 24 0 10 -7 21 -16 24 -24 9 -28 7 -14 -9 9 -10 9 -15 1
-15 -6 0 -11 5 -11 11 0 5 -4 8 -9 4 -5 -3 -13 -1 -16 5 -4 6 -1 9 7 8 7 -2
13 6 13 17 0 11 5 24 10 28 6 5 2 6 -8 3 -10 -3 -25 -6 -33 -6 -10 0 -13 -8
-10 -27 5 -25 4 -26 -8 -11 -7 10 -22 16 -34 13 -12 -2 -21 -1 -21 3 4 26 -2
34 -15 23 -12 -10 -55 1 -95 26 -1 1 0 7 4 14 6 8 10 7 17 -5 5 -9 14 -13 20
-10 6 4 17 -1 24 -10 8 -11 14 -13 19 -7 8 14 -4 33 -16 26 -5 -4 -9 -1 -9 6
0 8 -4 8 -13 1 -10 -8 -16 -6 -25 9 -7 11 -10 24 -7 28 3 5 -4 7 -16 4 -14 -4
-17 -8 -9 -13 9 -6 9 -9 0 -15 -6 -4 -9 -14 -5 -24 4 -11 -1 -9 -14 6 -12 12
-21 27 -21 33 0 5 -4 10 -10 10 -5 0 -7 -7 -4 -15 8 -21 -12 -19 -22 3 -4 9
-8 20 -8 24 -1 3 -5 10 -9 15 -5 4 -7 2 -5 -6 2 -10 -9 -13 -42 -13 -25 -1
-51 -5 -57 -11 -9 -6 -18 -5 -28 3 -13 11 -18 11 -28 0 -9 -10 -9 -11 1 -6 6
4 12 2 12 -4 0 -6 -6 -10 -12 -9 -27 3 -39 -1 -32 -13 5 -7 3 -8 -6 -3 -10 6
-10 10 2 19 8 6 20 21 26 32 9 18 8 24 -4 35 -14 11 -15 10 -12 -7 2 -14 -2
-19 -17 -17 -11 1 -23 -4 -27 -10 -5 -8 -9 -6 -14 6 -3 9 -12 17 -19 17 -8 0
-11 8 -8 19 3 10 0 22 -5 25 -6 4 -8 -2 -5 -14 3 -12 0 -20 -6 -20 -7 0 -9 5
-6 10 3 6 2 10 -4 10 -6 0 -8 6 -5 13 2 7 -4 13 -16 14 -11 1 -20 -2 -20 -7 0
-4 -7 -10 -15 -14 -13 -5 -14 -2 -4 15 8 15 8 24 0 30 -6 5 -9 6 -6 2 3 -3 -2
-17 -10 -29 -13 -20 -13 -25 1 -39 9 -9 13 -19 9 -23 -4 -4 -10 -1 -12 6 -3 6
-8 10 -12 8 -4 -3 -7 5 -6 17 3 29 -12 47 -33 40 -15 -6 -15 -4 -4 10 12 14
10 16 -12 14 -14 -1 -24 -6 -23 -12 1 -5 5 -9 10 -7 4 1 7 -2 7 -8 0 -16 -15
-12 -33 8 -13 15 -14 21 -4 32 8 9 8 11 0 6 -6 -3 -14 -2 -17 2 -3 5 -17 7
-31 5 -13 -3 -22 -9 -19 -14 3 -5 0 -9 -7 -9 -16 0 -3 -13 16 -16 7 -1 11 4 9
11 -3 7 2 15 11 19 11 4 14 2 8 -7 -14 -22 -12 -39 3 -33 8 3 12 1 9 -4 -7
-11 -27 -8 -69 9 -25 10 -27 13 -15 28 10 12 10 15 2 9 -7 -4 -13 -2 -13 3 0
6 7 11 15 11 8 0 15 5 15 10 0 14 -36 -5 -43 -22 -4 -10 -6 -10 -6 0 -1 8 -6
10 -13 6 -10 -6 -10 -5 -1 7 19 23 -7 21 -31 -3 -12 -10 -14 -18 -7 -18 7 0 9
-5 5 -11 -4 -8 -11 -3 -20 12 -12 24 -9 44 6 34 10 -6 7 22 -3 30 -4 3 -5 2
-2 -2 8 -10 -16 -33 -28 -26 -6 4 -8 0 -5 -9 4 -8 2 -21 -4 -29 -8 -11 -9 -10
-4 5 5 13 2 17 -8 13 -12 -5 -13 -1 -6 18 11 29 -3 34 -20 8 -11 -17 -11 -17
-6 1 5 15 3 17 -16 12 -42 -13 -53 -11 -54 9 -1 11 -2 24 -3 29 -1 5 -7 3 -15
-4 -8 -6 -12 -19 -9 -28 4 -12 1 -12 -10 3 -16 22 -18 42 -3 37 5 -2 4 4 -4
12 -14 18 -40 21 -40 6 0 -5 7 -6 17 -3 11 4 14 3 9 -6 -5 -7 -14 -10 -22 -7
-8 3 -14 2 -14 -3 0 -5 10 -11 22 -15 18 -4 20 -8 11 -17 -9 -9 -16 -9 -26 -1
-8 7 -17 9 -21 5 -4 -4 -4 1 0 12 6 14 4 17 -9 12 -14 -5 -15 -2 -6 20 5 14 8
28 5 30 -2 3 -7 -5 -11 -17 -6 -20 -7 -21 -20 -3 -13 17 -14 16 -9 -7 2 -14 2
-19 -2 -12 -3 6 -10 10 -15 7 -5 -4 -6 1 -3 10 5 11 2 14 -11 9 -15 -6 -16 -4
-5 17 7 13 9 21 5 17 -4 -4 -15 -4 -24 1 -9 5 -29 11 -46 14 l-30 6 30 -14
c25 -12 27 -14 9 -15 -13 0 -24 -8 -27 -21 -4 -16 -10 -19 -28 -14 -16 5 -19
4 -14 -5 5 -9 4 -11 -4 -6 -9 6 -9 11 -1 21 12 15 -3 30 -20 20 -5 -3 -10 -1
-10 5 0 6 -4 9 -8 6 -5 -3 -9 1 -9 9 0 8 3 12 7 10 4 -2 16 3 26 11 10 9 13
13 7 9 -7 -3 -13 -2 -13 4 0 5 6 11 13 14 6 2 0 6 -15 9 -15 3 -25 2 -23 -2 3
-4 -2 -13 -10 -20 -7 -6 -11 -19 -8 -28 5 -14 3 -15 -8 -4 -7 6 -21 12 -32 12
-12 0 -16 4 -11 13 6 9 4 9 -8 -1 -14 -11 -18 -10 -26 4 -8 15 -10 15 -15 0
-4 -9 -2 -16 4 -16 6 0 7 -5 4 -10 -5 -8 -11 -8 -19 -1 -7 6 -16 8 -20 4 -4
-4 -4 0 0 10 3 9 10 14 15 11 5 -3 9 9 9 25 0 31 -13 41 -26 19 -5 -7 -3 -8 5
-3 10 6 11 3 2 -13 -14 -27 -51 -25 -50 3 1 29 -6 56 -14 55 -4 0 -10 0 -14 0
-4 0 -2 -5 5 -12 7 -7 12 -18 12 -26 0 -9 -7 -6 -20 9 -10 13 -19 18 -20 12 0
-7 3 -13 8 -13 4 0 8 -16 10 -36 1 -22 -2 -33 -8 -29 -6 4 -10 12 -9 18 3 25
-1 38 -11 32 -5 -3 -10 2 -11 12 0 10 -3 13 -6 6 -2 -7 -9 -13 -14 -13 -6 0
-8 4 -4 9 3 5 1 12 -4 15 -12 8 -41 -4 -41 -16 0 -6 7 -7 16 -4 9 3 12 2 9 -5
-4 -5 -14 -9 -23 -7 -10 1 -23 -1 -31 -6 -10 -6 -12 -5 -7 2 4 8 0 12 -11 12
-15 0 -16 2 -3 10 9 6 17 5 21 -2 4 -6 9 -7 13 0 7 12 -15 31 -44 37 -15 3
-20 0 -17 -9 3 -7 -1 -13 -9 -13 -7 0 -11 4 -8 8 7 12 -19 49 -33 49 -7 0 -13
5 -13 11 0 8 -6 7 -17 -2 -14 -12 -16 -12 -9 1 4 8 1 7 -8 -4 -8 -10 -21 -16
-28 -13 -9 4 -9 6 -1 6 7 1 10 8 6 18 -4 10 -2 14 5 9 6 -3 14 -2 17 4 4 6 3
9 -2 8 -4 -1 -19 4 -33 11 -20 11 -23 11 -12 0 17 -18 15 -39 -3 -39 -8 0 -15
-8 -15 -17 0 -15 2 -16 10 -3 5 8 10 10 10 4 0 -6 -3 -13 -6 -17 -9 -9 -35 4
-28 14 3 5 0 9 -5 9 -6 0 -10 6 -8 13 1 6 -3 11 -10 10 -8 -2 -10 4 -6 14 5
12 2 15 -9 11 -22 -9 -39 5 -28 22 7 10 10 11 10 3 0 -7 5 -13 11 -13 5 0 8 4
5 9 -4 5 0 12 6 15 7 2 -1 4 -18 3 -22 -1 -30 -5 -27 -14 6 -16 -9 -17 -24 -2
-15 15 -63 0 -64 -20 0 -10 -4 -7 -10 9 -8 20 -12 22 -20 10 -7 -11 -9 -6 -5
18 2 19 2 31 -2 28 -6 -6 -10 -24 -14 -57 -3 -24 -28 -19 -34 8 -5 19 -9 21
-20 12 -8 -6 -11 -16 -8 -23 3 -6 -1 -3 -10 7 -8 11 -12 25 -9 33 4 10 0 12
-11 8 -9 -3 -13 -11 -10 -16 4 -6 0 -7 -12 -1 -30 15 -49 10 -46 -11 3 -18 3
-18 -13 -2 -19 18 -15 28 13 32 9 2 18 8 20 13 2 6 11 11 20 12 11 0 12 2 4 6
-6 2 -10 9 -7 13 3 5 1 12 -5 15 -6 4 -10 3 -9 -2 4 -24 -2 -35 -13 -25 -16
13 -70 4 -61 -11 3 -5 1 -7 -5 -3 -5 3 -13 0 -15 -6 -3 -7 -6 -3 -6 10 -1 15
3 21 11 16 6 -4 8 -3 5 4 -5 6 1 8 15 5 13 -3 20 -2 16 2 -4 5 -2 15 5 24 11
14 10 15 -7 1 -22 -18 -28 -17 -36 4 -4 14 -7 13 -17 -4 -11 -16 -10 -18 3
-13 14 5 14 3 -1 -21 -10 -15 -20 -24 -23 -21 -3 2 -11 0 -17 -5 -9 -8 -14 -6
-18 4 -8 21 10 31 28 16 9 -7 15 -8 15 -2 0 5 -8 13 -17 16 -12 5 -14 9 -5 18
7 7 12 17 12 23 0 5 -5 2 -11 -7 -14 -24 -59 -20 -59 5 0 15 -3 17 -13 8 -8
-6 -18 -7 -22 -3 -5 4 -5 1 -1 -6 4 -7 12 -10 17 -7 5 4 9 4 9 1 0 -3 -10 -10
-21 -17 -13 -7 -19 -7 -15 -1 3 6 2 13 -3 17 -5 3 -8 15 -6 26 4 18 2 19 -12
7 -22 -18 -71 -19 -77 -1 -4 9 -2 11 6 7 7 -4 8 -3 4 5 -10 15 -31 9 -31 -10
0 -8 -4 -14 -10 -14 -5 0 -16 -4 -23 -9 -11 -7 -12 -4 -3 12 14 27 14 32 -3
26 -8 -3 -17 0 -21 5 -3 6 -12 8 -18 4 -7 -4 -6 1 2 10 8 10 11 20 7 24 -3 3
-6 0 -7 -8 0 -8 -7 0 -15 16 l-13 30 1 -33z m8973 -3754 c7 -60 0 -500 -10
-596 -4 -34 -10 -60 -15 -57 -4 2 -11 -31 -14 -75 -4 -44 -12 -82 -17 -85 -5
-4 -9 -22 -9 -41 0 -21 -4 -33 -10 -29 -6 4 -10 -8 -10 -29 0 -31 -14 -74 -41
-128 -5 -9 -12 -35 -15 -58 -4 -22 -10 -40 -15 -40 -5 0 -9 -11 -9 -24 0 -14
-5 -28 -10 -31 -6 -4 -8 -10 -5 -15 3 -5 1 -11 -5 -15 -5 -3 -10 -15 -10 -26
0 -10 -4 -19 -10 -19 -5 0 -10 -5 -10 -11 0 -16 -62 -143 -72 -147 -4 -2 -8
-12 -8 -23 0 -10 -3 -19 -8 -19 -4 0 -13 -14 -20 -30 -8 -17 -19 -36 -25 -43
-7 -7 -21 -29 -31 -50 -11 -20 -23 -37 -28 -37 -4 0 -8 -6 -8 -13 0 -8 -11
-27 -25 -43 -14 -16 -28 -37 -31 -46 -3 -10 -10 -18 -15 -18 -5 0 -9 -5 -9
-11 0 -7 -10 -21 -22 -33 -13 -11 -32 -34 -42 -51 -18 -27 -62 -76 -167 -183
-55 -56 -172 -162 -179 -162 -4 0 -28 -20 -54 -45 -27 -25 -51 -45 -55 -45 -5
0 -21 -11 -37 -25 -16 -14 -38 -28 -49 -31 -10 -4 -25 -13 -33 -20 -7 -8 -20
-14 -28 -14 -8 0 -14 -4 -14 -10 0 -5 -7 -10 -15 -10 -8 0 -15 -4 -15 -10 0
-5 -11 -12 -25 -16 -14 -3 -25 -10 -25 -15 0 -5 -5 -9 -11 -9 -6 0 -17 -7 -25
-15 -9 -8 -24 -15 -35 -15 -10 0 -19 -4 -19 -10 0 -5 -7 -10 -15 -10 -8 0 -15
-4 -15 -10 0 -5 -16 -12 -35 -16 -19 -3 -35 -10 -35 -15 0 -5 -9 -9 -20 -9
-11 0 -20 -4 -20 -10 0 -5 -17 -12 -37 -16 -21 -4 -40 -10 -43 -13 -8 -10
-104 -41 -127 -41 -13 0 -23 -4 -23 -10 0 -5 -18 -13 -40 -16 -22 -4 -40 -10
-40 -15 0 -5 -16 -9 -35 -9 -19 0 -35 -4 -35 -9 0 -6 -31 -13 -70 -17 -38 -3
-70 -11 -70 -15 0 -5 -20 -9 -45 -9 -25 0 -45 -4 -45 -9 0 -14 -90 -21 -350
-27 -230 -6 -411 5 -452 27 -10 5 -36 9 -58 9 -22 0 -40 4 -40 9 0 5 -29 12
-65 16 -36 3 -67 11 -70 16 -4 5 -22 9 -41 9 -19 0 -34 4 -34 9 0 5 -18 12
-40 16 -22 4 -40 11 -40 16 0 5 -12 9 -27 9 -16 0 -41 7 -57 15 -15 8 -35 15
-42 15 -8 0 -14 5 -14 10 0 6 -10 10 -22 10 -13 0 -36 7 -52 15 -15 8 -35 15
-42 15 -8 0 -14 5 -14 10 0 6 -7 10 -16 10 -14 0 -72 27 -84 40 -3 3 -24 14
-47 25 -22 11 -39 23 -37 27 3 5 -4 8 -14 8 -11 0 -25 7 -32 15 -7 8 -19 15
-26 15 -8 0 -14 5 -14 10 0 6 -6 10 -14 10 -8 0 -21 6 -28 14 -8 7 -24 17 -36
20 -12 4 -22 12 -22 17 0 5 -5 9 -10 9 -11 0 -25 10 -65 48 -13 12 -28 22 -34
22 -5 0 -18 11 -29 25 -11 14 -24 25 -29 25 -5 0 -21 12 -35 27 -15 16 -45 44
-68 63 -77 64 -76 57 -24 104 25 22 119 114 208 202 l162 161 36 -37 c21 -20
51 -48 69 -61 17 -13 42 -34 55 -46 12 -13 27 -23 31 -23 5 0 20 -11 35 -25
15 -14 31 -25 35 -25 5 0 19 -10 33 -23 14 -12 44 -31 67 -42 24 -11 43 -23
43 -27 0 -3 14 -9 30 -13 17 -4 30 -11 30 -16 0 -5 8 -9 18 -9 9 0 26 -7 36
-15 11 -8 28 -15 38 -15 10 0 18 -4 18 -10 0 -5 9 -10 20 -10 11 0 20 -4 20
-9 0 -5 18 -12 40 -16 22 -4 40 -11 40 -16 0 -5 10 -9 23 -9 12 -1 33 -7 47
-15 14 -8 35 -14 48 -15 12 0 22 -4 22 -8 0 -8 107 -28 208 -38 28 -3 50 -9
47 -13 -7 -12 230 -21 373 -14 72 3 129 10 126 15 -3 4 17 8 45 8 27 0 52 4
55 9 3 5 36 12 73 16 38 4 70 10 73 14 5 7 76 29 123 38 15 3 27 9 27 14 0 5
6 9 14 9 7 0 27 7 42 15 16 8 37 15 47 15 9 0 17 5 17 10 0 6 5 10 11 10 5 0
37 14 71 30 33 17 66 30 74 30 8 0 14 5 14 10 0 6 7 10 15 10 8 0 15 4 15 9 0
5 14 12 30 16 17 4 28 11 24 16 -3 5 0 9 6 9 10 0 21 8 55 38 7 6 16 12 20 12
3 0 11 5 18 10 25 21 59 49 100 82 63 50 276 268 282 289 4 11 10 19 15 19 4
0 23 24 40 53 18 28 36 54 40 57 14 10 90 141 90 156 0 8 5 12 10 9 6 -3 10 2
10 12 0 11 7 28 15 39 8 10 15 27 15 37 0 9 4 17 9 17 5 0 12 18 16 40 4 22
11 40 16 40 5 0 9 9 9 20 0 11 5 20 10 20 6 0 10 8 10 17 0 27 34 133 42 133
4 0 8 13 8 28 0 16 7 51 15 78 8 27 15 59 15 72 l0 22 -970 0 c-746 0 -980 3
-1010 12 -22 7 -40 16 -40 19 0 4 -10 9 -22 13 -44 11 -118 94 -118 131 0 8
-4 15 -9 15 -12 0 -23 56 -23 120 0 64 11 120 23 120 5 0 9 7 9 15 0 34 49 92
101 121 19 11 37 24 41 29 5 7 355 11 1008 13 645 1 1000 6 1000 12 0 6 115
10 314 10 l315 0 6 -52z"/>
</g>
</svg>
